<svg id="ëÎÓÈ_1" data-name="ëÎÓÈ 1" xmlns="http://www.w3.org/2000/svg" viewBox="0 0 332.74 279.95"><defs><style>.cls-1{fill:#e74c3c;}.cls-2{fill:#a2392b;}.cls-3{fill:#dee0e0;}.cls-4{fill:#ced0d0;}.cls-5{fill:#f7f9f9;}.cls-6{fill:#f4f6f7;}.cls-7{fill:#efefef;}.cls-15,.cls-8{fill:#f9dc94;}.cls-9{fill:#c0392b;}.cls-10,.cls-11{fill:#c41419;}.cls-11,.cls-15{stroke:#f9dc94;stroke-miterlimit:10;}.cls-11{stroke-width:2px;}.cls-12{fill:#810d10;}.cls-13{fill:#a11014;}.cls-14{fill:#ccc;}.cls-15{stroke-width:0.25px;}</style></defs><polygon class="cls-1" points="4.79 122.55 4.18 126.7 160.19 272.2 329.89 194.32 330.68 190.06 171.8 49.86 4.79 122.55"/><polygon class="cls-2" points="3.16 124.65 159.46 270.44 326.98 192.32 170.84 47.76 3.16 124.65"/><path class="cls-3" d="M240.2,299.24c-.56,1.83-1,3.7-1.41,5.58l163.64-74.15s0-.09,0-.14c.3-1.85.69-3.63,1.13-5.32Z" transform="translate(-81.1 -62.6)"/><path class="cls-4" d="M410,209.58,247.4,284.07h0a57,57,0,0,0-7.2,15.17l163.38-74A64.69,64.69,0,0,1,410,209.58Z" transform="translate(-81.1 -62.6)"/><path class="cls-5" d="M401.73,235.94,238,310.14c-.18,1.69-.29,3.39-.33,5.09l163.7-74.17C401.41,239.49,401.53,237.79,401.73,235.94Z" transform="translate(-81.1 -62.6)"/><path class="cls-6" d="M403.29,256.28a16.86,16.86,0,0,1-1.55-5.52l-163.5,74.09c.17,1.18.37,2.37.62,3.54l.83,3.88Z" transform="translate(-81.1 -62.6)"/><path class="cls-7" d="M402.43,230.67,238.79,304.82q-.54,2.64-.82,5.32l163.76-74.2C401.9,234.3,402.13,232.55,402.43,230.67Z" transform="translate(-81.1 -62.6)"/><polygon class="cls-8" points="190.12 242.37 176.32 252.36 178.62 253.99 176.21 279.95 187.29 269.69 192.96 274.25 195.54 246.21 195.54 246.2 195.54 246.2 190.12 242.37"/><path class="cls-6" d="M401.31,246,237.74,320.13c.1,1.58.27,3.16.5,4.72l163.5-74.09A41.86,41.86,0,0,1,401.31,246Z" transform="translate(-81.1 -62.6)"/><path class="cls-6" d="M401.34,241.06l-163.7,74.17c0,1.64,0,3.27.1,4.9L401.31,246C401.26,244.55,401.26,242.9,401.34,241.06Z" transform="translate(-81.1 -62.6)"/><path class="cls-2" d="M249.31,287l164-75,.5-2.72L256.61,66.81,89.91,139.23l-.6,4.16,1.41,1.31A68.45,68.45,0,0,0,84,185.09l.67,4.67L240,332.11h.22l1.46-.69a84.65,84.65,0,0,1-.62-22.58A62.38,62.38,0,0,1,247,289.26,4.51,4.51,0,0,1,249.31,287Z" transform="translate(-81.1 -62.6)"/><polygon class="cls-9" points="8.81 76.64 165.31 222.93 167.69 221.85 11.8 75.27 8.81 76.64"/><polygon class="cls-10" points="11.8 75.27 167.69 221.85 332.74 146.69 176.18 0 11.8 75.27"/><path class="cls-11" d="M110,141.67l139.28,131,147.49-67.15L256.87,74.41Zm277.57,61.77-138,62.85L119.18,143.72,256.64,80.77Z" transform="translate(-81.1 -62.6)"/><path class="cls-12" d="M90.23,139.53l-.32-.3-.52,1.11a4.73,4.73,0,0,1-.23.45c-7.08,12.78-9.41,28-7.33,42.5L82.5,188,205.22,301.46C156.47,252.25,87.13,190.41,90.23,139.53Z" transform="translate(-81.1 -62.6)"/><path class="cls-13" d="M90.23,139.53c-3.1,50.88,66.24,112.72,115,161.93l36.06,33.34s-3.93-12.43-3.13-24.7c.66-10.06,5.11-19.11,8.26-24.56Z" transform="translate(-81.1 -62.6)"/><path class="cls-14" d="M265.37,312.92l4.22-1.93,2.1-1,1.06-.49,1-.5c2.8-1.32,5.59-2.66,8.35-4.06-2.87,1.15-5.72,2.36-8.56,3.6l-1.06.46-1.06.47-2.13.93-4.23,1.9-4.22,1.94c-1.4.65-2.81,1.29-4.21,2-2.79,1.32-5.58,2.66-8.35,4.06,2.88-1.15,5.73-2.36,8.56-3.6,1.43-.61,2.84-1.24,4.25-1.86Z" transform="translate(-81.1 -62.6)"/><path class="cls-15" d="M153.34,155l.3.3a1.72,1.72,0,0,0-.77,1.62,1.79,1.79,0,0,0,.36.8,10.86,10.86,0,0,0,1.11,1.21l6.39,6.31a6.79,6.79,0,0,1,1.89,2.7,2.7,2.7,0,0,1-.11,1.93,3.08,3.08,0,0,1-1.44,1.41,5,5,0,0,1-3.76.33,3.65,3.65,0,0,1-1.52-.89,1.7,1.7,0,0,1-.59-1.11.86.86,0,0,1,.53-.83,1.71,1.71,0,0,1,1.13-.15,2,2,0,0,1,1.09.56,3.84,3.84,0,0,1,.44.53l.16.24a3.35,3.35,0,0,0,.37.47,1.65,1.65,0,0,0,.86.46,1.44,1.44,0,0,0,.88-.12,1,1,0,0,0,.4-.4.9.9,0,0,0,.05-.59,1.81,1.81,0,0,0-.3-.65,13.25,13.25,0,0,0-1.42-1.57l-7.46-7.37a9.3,9.3,0,0,0-1.38-1.18,3,3,0,0,0-1.16-.45,4.82,4.82,0,0,0-2.49.27l-.3-.3Zm-4.74,3,1,.09a3.12,3.12,0,0,1,.9.17,4.17,4.17,0,0,1,.79.67l.26.26,8,7.84c.6.6,1.07,1.09,1.38,1.47a3.06,3.06,0,0,1,.6,1,1.55,1.55,0,0,1,0,.83,2.11,2.11,0,0,0,.24-2.08,9.47,9.47,0,0,0-2.17-2.79l-7-6.92-.06-.06-.1-.11-.32-.31a1.52,1.52,0,0,1-.32-.49,1.48,1.48,0,0,1,.06-.62l.19-.71Zm11.12,13.3a6.87,6.87,0,0,1-1-.13,2.54,2.54,0,0,1-.67-.27,3,3,0,0,1-.59-.47A3.15,3.15,0,0,1,157,170l-.27-.33a1,1,0,0,0-.45-.26.6.6,0,0,0-.44,0,.34.34,0,0,0-.17.44,1.43,1.43,0,0,0,.43.65,3.32,3.32,0,0,0,1.6.86A4.28,4.28,0,0,0,159.72,171.36Z" transform="translate(-81.1 -62.6)"/><path class="cls-15" d="M161.28,161.25a9.86,9.86,0,0,1-1.94-3.05,6.79,6.79,0,0,1-.47-3.08,5.27,5.27,0,0,1,1-2.67,6.13,6.13,0,0,1,2.43-1.89,9.64,9.64,0,0,1,4.69-.78,14,14,0,0,1,5.17,1.35,13.42,13.42,0,0,1,4.32,3.12,9.82,9.82,0,0,1,1.93,3,6.58,6.58,0,0,1,.47,3.07,5.45,5.45,0,0,1-1,2.68,6.07,6.07,0,0,1-2.42,1.9,9.71,9.71,0,0,1-4.73.8,14.18,14.18,0,0,1-5.17-1.33A13.66,13.66,0,0,1,161.28,161.25Zm10,4.14a12,12,0,0,1-3-.84,14,14,0,0,1-2.83-1.65,19.06,19.06,0,0,1-2.69-2.45,12.37,12.37,0,0,1-2.57-3.87,5.38,5.38,0,0,1-.15-3.49,5.57,5.57,0,0,0-.74,2.55,6.32,6.32,0,0,0,.54,2.72,9.44,9.44,0,0,0,1.78,2.69,12.75,12.75,0,0,0,2.74,2.26,13.75,13.75,0,0,0,3.29,1.48A14.28,14.28,0,0,0,171.32,165.39ZM163.9,160a18.91,18.91,0,0,0,2.84,2.57,13.66,13.66,0,0,0,3,1.69,8.28,8.28,0,0,0,2.81.63,5.32,5.32,0,0,0,2.47-.46,3.11,3.11,0,0,0,1.93-2.82,5.72,5.72,0,0,0-.74-2.8,15.33,15.33,0,0,0-2.41-3.36,20.59,20.59,0,0,0-2.9-2.63,13.61,13.61,0,0,0-2.92-1.66,8.56,8.56,0,0,0-2.78-.63,5.35,5.35,0,0,0-2.47.47,3.27,3.27,0,0,0-1.61,1.41,3.4,3.4,0,0,0-.31,2.08,7.51,7.51,0,0,0,1,2.6A15.57,15.57,0,0,0,163.9,160Zm13.27,2.77q2-3.9-1.75-8a14.2,14.2,0,0,0-5.86-3.85,11,11,0,0,0-3.2-.63,14.87,14.87,0,0,1,7.8,4.93A16.92,16.92,0,0,1,176,157.6a10.26,10.26,0,0,1,1.11,2.19,5.24,5.24,0,0,1,.23.93,3.93,3.93,0,0,1,0,.91A6.42,6.42,0,0,1,177.17,162.72Z" transform="translate(-81.1 -62.6)"/><path class="cls-15" d="M183.79,150.18l-.32,2.62,2.32,2.55a10.27,10.27,0,0,0,1.29,1.23,3.63,3.63,0,0,0,1.11.56,4.42,4.42,0,0,0,2.33-.06l.29.31-6.77,3.1-.28-.31a1.77,1.77,0,0,0,.91-1.6,4.49,4.49,0,0,0-1.34-2.1l-6.92-7.57a10.46,10.46,0,0,0-1.31-1.28,3.28,3.28,0,0,0-1-.52,4,4,0,0,0-2.23,0l-.28-.31,6.62-3,.29.31a1.83,1.83,0,0,0-.93,1.6,2,2,0,0,0,.33.84,10,10,0,0,0,1,1.27l4.09,4.48.67-5.76a5.79,5.79,0,0,0,0-1.65,2,2,0,0,0-.5-1,2.33,2.33,0,0,0-1.29-.73,2.81,2.81,0,0,0-1.54.11l-.29-.31,5.88-2.7.27.29a7.34,7.34,0,0,0-1.79,4.46l-.18,1.41,0,.32-.1,1,10,4.19.24.09.23.09,1.8.7a6.8,6.8,0,0,0,1.82.38,3.72,3.72,0,0,0,1.46-.25l.28.31L193,156.37l-.28-.31a2.15,2.15,0,0,0,.95-.77c.1-.23,0-.49-.26-.79a2.79,2.79,0,0,0-.64-.5,11.12,11.12,0,0,0-1.23-.57Zm1.28,9.12,3.1-1.43-.68-.1a3.3,3.3,0,0,1-.83-.19,1.55,1.55,0,0,1-.51-.4L186,157l-.11-.11-.16-.17-8.56-9.38-.16-.17-.1-.12-.19-.21a1.13,1.13,0,0,1-.31-.52,1.22,1.22,0,0,1,.1-.6l.22-.69-3.49,1.6,1,.14a3.18,3.18,0,0,1,.83.18,1.54,1.54,0,0,1,.51.41l.32.33.15.17,8.56,9.38.16.17.29.34a1.13,1.13,0,0,1,.32.49,1.37,1.37,0,0,1-.1.62Zm-1.34-15.36a11.69,11.69,0,0,1,.53-2.45l-2.62,1.21a3.11,3.11,0,0,1,1.83.89Zm.11,5.83,7.71,3.22c.79.34,1.33.59,1.62.74a2.34,2.34,0,0,1,.66.47,1.09,1.09,0,0,1,.27,1l3.08-1.41a7.46,7.46,0,0,1-1.62-.37l-1.32-.47-.69-.26-9.59-4Z" transform="translate(-81.1 -62.6)"/><path class="cls-15" d="M200.34,133.58l3.81,3.55-.34.15a10.36,10.36,0,0,0-4-1.79,5.92,5.92,0,0,0-3.58.49l-.6.27c-.93.43-1.43.9-1.51,1.41s.25,1.17,1,2l3.11,3.41,1.41-.65a3.42,3.42,0,0,0,1.91-1.55,2.63,2.63,0,0,0-.56-2.18l.32-.15,4.63,5.07-.32.15a9.31,9.31,0,0,0-2-1.27,3.43,3.43,0,0,0-1.68-.28,6.13,6.13,0,0,0-2,.59l-1.44.66,4,4.34a8.61,8.61,0,0,0,1.58,1.43,2.44,2.44,0,0,0,1.37.42,4.14,4.14,0,0,0,1.58-.42l1-.45a3.63,3.63,0,0,0,2-2.1,9.89,9.89,0,0,0,.42-3.93l0-.15.38-.17,2.48,4.67-12.56,5.77-.28-.31a1.81,1.81,0,0,0,.91-1.6,4.53,4.53,0,0,0-1.35-2.1l-6.91-7.58a10.83,10.83,0,0,0-1.32-1.27,3,3,0,0,0-1-.52,3.88,3.88,0,0,0-2.24,0l-.28-.31Zm1.42,18,3.11-1.42-.68-.1a3.67,3.67,0,0,1-.83-.19,1.74,1.74,0,0,1-.52-.41,1.4,1.4,0,0,0-.2-.21l-.11-.11-.15-.18-8.57-9.37-.15-.17-.11-.13-.18-.21a1.12,1.12,0,0,1-.32-.52,1.31,1.31,0,0,1,.1-.59l.22-.7-3.48,1.6,1,.14a3.82,3.82,0,0,1,.83.19,1.72,1.72,0,0,1,.51.41l.31.32.16.17,8.56,9.38.15.17.3.34a1.38,1.38,0,0,1,.32.5,1.36,1.36,0,0,1-.11.61Zm-1.88-17.31-1.53.7a6.38,6.38,0,0,1,1.42.06,10.55,10.55,0,0,1,1.57.46Zm2.28,6.3a1.94,1.94,0,0,1-.14.56,3.33,3.33,0,0,1-.42.61,4.47,4.47,0,0,1,1.74.12Zm9.92,6.28L211,144.76a8.65,8.65,0,0,1-.1,1.07,4.27,4.27,0,0,1-.29,1,6.14,6.14,0,0,1-.48,1Z" transform="translate(-81.1 -62.6)"/><path class="cls-15" d="M222.32,142.92l-.29-.31a1.77,1.77,0,0,0,.89-1.59,4.62,4.62,0,0,0-1.35-2.1l-6.92-7.57a10.66,10.66,0,0,0-1.28-1.24,3.21,3.21,0,0,0-1.07-.55,3.82,3.82,0,0,0-2.2,0l-.28-.31.18-.07,1.35-.5c.48-.18.93-.38,1.37-.58s.79-.38,1.27-.64.83-.47,1.07-.62l1-.6a12.13,12.13,0,0,1,1.14-.61,8.69,8.69,0,0,1,2.2-.67,7,7,0,0,1,2.15,0,6.12,6.12,0,0,1,1.94.62,5.73,5.73,0,0,1,1.61,1.24,2.88,2.88,0,0,1-.22,4.57,7.58,7.58,0,0,1,2.79-.39,7.16,7.16,0,0,1,2.7.67,6.9,6.9,0,0,1,2.21,1.62,4.72,4.72,0,0,1,1,1.67,2.8,2.8,0,0,1,0,1.62,3.2,3.2,0,0,1-.93,1.49,6.82,6.82,0,0,1-1.85,1.21c-.39.17-1,.4-1.77.68-1.15.42-1.94.7-2.35.87-.68.26-1.28.51-1.81.76s-.88.42-1.37.68l-1,.56Zm1-1.22a11.23,11.23,0,0,1,1.31-.74,11.75,11.75,0,0,1,1.41-.53l.27-.1-.62-.1a3.82,3.82,0,0,1-.83-.19,1.55,1.55,0,0,1-.51-.4l-.3-.33-.12-.12-.05-.05-8.56-9.38-.05-.06-.1-.11-.3-.33a1.69,1.69,0,0,1-.26-.35.59.59,0,0,1-.07-.29,2.51,2.51,0,0,1,.12-.48l.19-.66-.35.21a14.62,14.62,0,0,1-1.37.73,12,12,0,0,1-1.66.6l.94.15a4.11,4.11,0,0,1,.84.19,1.7,1.7,0,0,1,.5.41l.31.33.15.17,8.56,9.38.16.17.3.33a1.13,1.13,0,0,1,.31.49,1.33,1.33,0,0,1-.09.62Zm-3.28-8.23,1.72-.79a3,3,0,0,0,1.81-1.65,2.36,2.36,0,0,0-.07-1.45,4.44,4.44,0,0,0-.93-1.53,6.22,6.22,0,0,0-1.82-1.38,5.51,5.51,0,0,0-2.08-.58,3.85,3.85,0,0,0-1.93.33,2.11,2.11,0,0,0-1,.79,1.4,1.4,0,0,0-.14,1,4.77,4.77,0,0,0,1.06,1.54Zm3.91-2.06a2.86,2.86,0,0,0,1-2,3.17,3.17,0,0,0-.95-2.15,5.06,5.06,0,0,0-2.36-1.47,6.39,6.39,0,0,0-3.06-.08,6.86,6.86,0,0,1,4.37,2.16Q224.7,129.74,224,131.41Zm-3.56,2.46,3.86,4.22a4.66,4.66,0,0,0,2.31,1.55,4.28,4.28,0,0,0,2.64-.45A2.56,2.56,0,0,0,231,137a3.83,3.83,0,0,0-1.21-2.7,6.66,6.66,0,0,0-1.13-1,6.2,6.2,0,0,0-2.66-1.07,4.56,4.56,0,0,0-1.38,0,8.43,8.43,0,0,0-2.4.77ZM231,138.41a3.61,3.61,0,0,0,1.22-1.39,2.35,2.35,0,0,0,.18-1.61,3.49,3.49,0,0,0-.91-1.63,5.81,5.81,0,0,0-2.63-1.65,8.21,8.21,0,0,0-3.45-.31,7.18,7.18,0,0,1,4.76,2.34C231.64,135.73,231.91,137.14,231,138.41Z" transform="translate(-81.1 -62.6)"/><path class="cls-15" d="M230.24,129.59a9.57,9.57,0,0,1-1.94-3,6.64,6.64,0,0,1-.47-3.08,5.18,5.18,0,0,1,1-2.67,6.13,6.13,0,0,1,2.43-1.89,9.64,9.64,0,0,1,4.69-.78,14.21,14.21,0,0,1,5.17,1.35,13.56,13.56,0,0,1,4.32,3.13,9.89,9.89,0,0,1,1.93,3,6.54,6.54,0,0,1,.47,3.06,5.42,5.42,0,0,1-1,2.68,6.14,6.14,0,0,1-2.42,1.9,9.85,9.85,0,0,1-4.73.81,14.19,14.19,0,0,1-5.17-1.34A13.5,13.5,0,0,1,230.24,129.59Zm10,4.15a12.91,12.91,0,0,1-3-.84,13.63,13.63,0,0,1-2.84-1.66,19,19,0,0,1-2.68-2.45,12.37,12.37,0,0,1-2.57-3.87,5.25,5.25,0,0,1-.15-3.49,5.48,5.48,0,0,0-.74,2.56,6.38,6.38,0,0,0,.54,2.72,9.58,9.58,0,0,0,1.78,2.69,12.89,12.89,0,0,0,2.73,2.25,13.61,13.61,0,0,0,3.3,1.48A14.29,14.29,0,0,0,240.28,133.74Zm-7.43-5.45a18.92,18.92,0,0,0,2.85,2.57,13.43,13.43,0,0,0,3,1.69,8.66,8.66,0,0,0,2.82.64,5.38,5.38,0,0,0,2.46-.47,3.09,3.09,0,0,0,1.94-2.82,5.72,5.72,0,0,0-.74-2.8,15.38,15.38,0,0,0-2.42-3.35,19.39,19.39,0,0,0-2.89-2.63,13,13,0,0,0-2.92-1.66,8.39,8.39,0,0,0-2.78-.64,5.42,5.42,0,0,0-2.48.47,3.34,3.34,0,0,0-1.6,1.41,3.4,3.4,0,0,0-.31,2.08,7.62,7.62,0,0,0,1,2.61A16.25,16.25,0,0,0,232.85,128.29Zm13.28,2.78q2-3.91-1.75-8a14.64,14.64,0,0,0-5.86-3.85,11.34,11.34,0,0,0-3.21-.63,14.92,14.92,0,0,1,7.81,4.93,18.35,18.35,0,0,1,1.85,2.39,9.74,9.74,0,0,1,1.1,2.19,4.92,4.92,0,0,1,.24.93,3.94,3.94,0,0,1,0,.91A7.72,7.72,0,0,1,246.13,131.07Z" transform="translate(-81.1 -62.6)"/><path class="cls-15" d="M246.89,122a9.86,9.86,0,0,1-1.94-3,6.83,6.83,0,0,1-.47-3.09,5.27,5.27,0,0,1,1-2.66,6.13,6.13,0,0,1,2.43-1.89,9.57,9.57,0,0,1,4.7-.79,14.31,14.31,0,0,1,5.17,1.35,13.67,13.67,0,0,1,4.31,3.13,9.82,9.82,0,0,1,1.93,3,6.56,6.56,0,0,1,.47,3.07,5.42,5.42,0,0,1-1,2.67,5.9,5.9,0,0,1-2.42,1.9,9.71,9.71,0,0,1-4.73.81,14,14,0,0,1-5.17-1.34A13.48,13.48,0,0,1,246.89,122Zm10,4.14a12,12,0,0,1-3-.84,14,14,0,0,1-2.83-1.65,18.56,18.56,0,0,1-2.69-2.46,12.52,12.52,0,0,1-2.57-3.86,5.41,5.41,0,0,1-.15-3.5,5.6,5.6,0,0,0-.74,2.56,6.32,6.32,0,0,0,.54,2.72,9.48,9.48,0,0,0,1.79,2.69A12.74,12.74,0,0,0,250,124a13.64,13.64,0,0,0,3.3,1.48A14.58,14.58,0,0,0,256.93,126.09Zm-7.42-5.44a18.91,18.91,0,0,0,2.84,2.57,13.6,13.6,0,0,0,3,1.68,8.07,8.07,0,0,0,2.81.64,5.45,5.45,0,0,0,2.47-.46,3.12,3.12,0,0,0,1.93-2.83,5.66,5.66,0,0,0-.74-2.8,15.54,15.54,0,0,0-2.41-3.35,20,20,0,0,0-2.9-2.63,13.61,13.61,0,0,0-2.92-1.66,8.31,8.31,0,0,0-2.78-.63,5.25,5.25,0,0,0-2.47.47,3.2,3.2,0,0,0-1.6,1.41,3.39,3.39,0,0,0-.32,2.08,7.51,7.51,0,0,0,1,2.6A16,16,0,0,0,249.51,120.65Zm13.27,2.77q2-3.9-1.75-8a14.2,14.2,0,0,0-5.86-3.85A11,11,0,0,0,252,111a14.87,14.87,0,0,1,7.8,4.93,17.56,17.56,0,0,1,1.86,2.38,10.66,10.66,0,0,1,1.1,2.19,5.56,5.56,0,0,1,.23.94,4.54,4.54,0,0,1,0,.91A7.75,7.75,0,0,1,262.78,123.42Z" transform="translate(-81.1 -62.6)"/><path class="cls-15" d="M269.38,110.88l-.32,2.63,2.33,2.54a9.88,9.88,0,0,0,1.28,1.24,3.66,3.66,0,0,0,1.12.55,4.32,4.32,0,0,0,2.33-.06l.29.31-6.77,3.11-.28-.31a1.81,1.81,0,0,0,.91-1.6,4.44,4.44,0,0,0-1.35-2.1L262,109.61a10.15,10.15,0,0,0-1.32-1.27,3,3,0,0,0-1-.52,3.85,3.85,0,0,0-2.23,0l-.29-.31,6.63-3.05.28.32a1.82,1.82,0,0,0-.92,1.6,2,2,0,0,0,.33.84,9.34,9.34,0,0,0,1,1.26l4.09,4.48.67-5.76a5.79,5.79,0,0,0,0-1.65,2.06,2.06,0,0,0-.51-1,2.33,2.33,0,0,0-1.28-.73,2.84,2.84,0,0,0-1.55.11l-.28-.31,5.88-2.7.26.29a7.5,7.5,0,0,0-1.79,4.47l-.18,1.4,0,.32-.1,1,10,4.19.24.09.23.1,1.8.69a6.87,6.87,0,0,0,1.82.39,3.82,3.82,0,0,0,1.45-.25l.29.31-6.91,3.17-.29-.31a2.14,2.14,0,0,0,1-.76c.1-.23,0-.49-.26-.8a2.77,2.77,0,0,0-.64-.49,9.52,9.52,0,0,0-1.23-.57Zm1.28,9.12,3.11-1.42-.68-.1a3.67,3.67,0,0,1-.83-.19,1.6,1.6,0,0,1-.51-.41l-.21-.21-.11-.11-.15-.17L262.72,108l-.16-.17a.64.64,0,0,1-.1-.13l-.19-.21A1.09,1.09,0,0,1,262,107a1.15,1.15,0,0,1,.09-.59l.23-.7-3.49,1.6,1,.14a4,4,0,0,1,.82.18,1.49,1.49,0,0,1,.52.42l.31.32.16.17,8.56,9.38.16.17.29.34a1.25,1.25,0,0,1,.32.5,1.36,1.36,0,0,1-.11.61Zm-1.34-15.35a11.93,11.93,0,0,1,.54-2.46l-2.63,1.21a3.06,3.06,0,0,1,1.83.9A4.26,4.26,0,0,1,269.32,104.65Zm.11,5.82,7.71,3.23c.8.33,1.34.58,1.63.74a2.44,2.44,0,0,1,.66.47,1.06,1.06,0,0,1,.27.94l3.07-1.41a7.5,7.5,0,0,1-1.61-.37l-1.33-.47-.68-.26-9.59-4Z" transform="translate(-81.1 -62.6)"/><path class="cls-15" d="M232.21,165.64l3.11,2.91-.34.15a9.27,9.27,0,0,0-2.38-1.13,6.12,6.12,0,0,0-2.28-.23A7.33,7.33,0,0,0,228,168l-.31.14a3,3,0,0,0-1.67,1.31c-.16.45.05,1,.64,1.68l2.45,2.84,1.08-.49a4.31,4.31,0,0,0,2.05-1.47,2,2,0,0,0-.2-1.9l.32-.14,3.85,4.44-.32.14a7.47,7.47,0,0,0-1.82-1.15,3.31,3.31,0,0,0-1.61-.22,7.21,7.21,0,0,0-2,.63l-1.07.48,3.08,3.54a5.41,5.41,0,0,0,1.07,1,2.55,2.55,0,0,0,1,.38,5.63,5.63,0,0,0,2.47-.29l.22.26L230,182.45l-.22-.26a2.07,2.07,0,0,0,1.11-1.46c0-.39-.28-1-1-1.78l-5.46-6.29a6.3,6.3,0,0,0-1.06-1,2.27,2.27,0,0,0-.91-.4,4.15,4.15,0,0,0-2.13.12l-.22-.26Zm-1.05,15.7,3.18-1.44-.64-.05a2.57,2.57,0,0,1-.76-.12,1.17,1.17,0,0,1-.43-.32l-.16-.18-.09-.09-.12-.15-6.76-7.79-.12-.14-.08-.1-.15-.18a.73.73,0,0,1-.22-.44,1.16,1.16,0,0,1,.18-.53l.32-.63-3.57,1.61.92.07a3.35,3.35,0,0,1,.76.11,1.14,1.14,0,0,1,.44.34c.08.09.17.18.24.27l.13.14,6.75,7.79.13.15a3.42,3.42,0,0,1,.22.28.84.84,0,0,1,.24.42,1.28,1.28,0,0,1-.2.54Zm.51-15-1.56.7a7.2,7.2,0,0,1,1.38,0,7.34,7.34,0,0,1,1.38.32Zm1.13,5.47a1.79,1.79,0,0,1-.22.5,4,4,0,0,1-.5.56,4.82,4.82,0,0,1,1.65,0Z" transform="translate(-81.1 -62.6)"/><path class="cls-15" d="M238.43,170.76a6.29,6.29,0,0,1-1.39-2.58,5.22,5.22,0,0,1,0-2.69,5.77,5.77,0,0,1,1.39-2.42,8.12,8.12,0,0,1,2.61-1.8,11.09,11.09,0,0,1,4.59-1,12.45,12.45,0,0,1,4.74.9,9.44,9.44,0,0,1,3.64,2.51,6.34,6.34,0,0,1,1.39,2.56,5.08,5.08,0,0,1,0,2.68,5.89,5.89,0,0,1-1.36,2.41,7.9,7.9,0,0,1-2.6,1.82,11.37,11.37,0,0,1-4.64,1,12.27,12.27,0,0,1-4.72-.89A9.39,9.39,0,0,1,238.43,170.76Zm9,3.09a10.86,10.86,0,0,1-2.72-.57,10,10,0,0,1-2.46-1.3,12.5,12.5,0,0,1-2.19-2,8.08,8.08,0,0,1-1.88-3.27,4.52,4.52,0,0,1,.39-3.08,5.84,5.84,0,0,0-1.09,2.3,4.76,4.76,0,0,0,.1,2.37,6.17,6.17,0,0,0,1.3,2.27,8.48,8.48,0,0,0,2.26,1.84,10.73,10.73,0,0,0,2.93,1.12A13.22,13.22,0,0,0,247.39,173.85Zm-6.26-4.39a12.45,12.45,0,0,0,2.32,2.11,10.18,10.18,0,0,0,2.58,1.32,7.58,7.58,0,0,0,2.59.41,6.25,6.25,0,0,0,2.42-.55,3.75,3.75,0,0,0,2.28-2.6,4.19,4.19,0,0,0-.29-2.43,10.15,10.15,0,0,0-1.8-2.82,13.1,13.1,0,0,0-2.36-2.15,9.91,9.91,0,0,0-2.54-1.31,7.64,7.64,0,0,0-2.56-.4,6.34,6.34,0,0,0-2.43.55,4.26,4.26,0,0,0-1.74,1.34,3.19,3.19,0,0,0-.62,1.85,5.17,5.17,0,0,0,.53,2.24A9.74,9.74,0,0,0,241.13,169.46Zm12.25,1.71q2.46-3.55-.47-6.93a9.29,9.29,0,0,0-2.24-1.87,10.66,10.66,0,0,0-2.77-1.2,10.43,10.43,0,0,0-3-.37,10.77,10.77,0,0,1,6.71,3.91,11.81,11.81,0,0,1,1.41,2,7.12,7.12,0,0,1,.72,1.87,3.29,3.29,0,0,1,0,1.61A9.21,9.21,0,0,1,253.38,171.17Z" transform="translate(-81.1 -62.6)"/><path class="cls-15" d="M259.75,160.75l3,3.43a6.23,6.23,0,0,0,1,1,2.73,2.73,0,0,0,1,.43,4.63,4.63,0,0,0,2.23-.18l.23.26-6.93,3.11-.22-.26a2,2,0,0,0,1.11-1.46c0-.39-.28-1-1-1.77l-5.45-6.3a7.68,7.68,0,0,0-1.07-1.05,2.58,2.58,0,0,0-.91-.4,4.55,4.55,0,0,0-2.13.13l-.22-.26.28-.11,1-.39c.4-.16.86-.35,1.36-.58.81-.37,1.52-.72,2.13-1.06l1.43-.79q.67-.37,1.38-.69a12.51,12.51,0,0,1,2.46-.83,8.3,8.3,0,0,1,2.21-.2,5.69,5.69,0,0,1,1.88.44,4,4,0,0,1,1.44,1.05,2,2,0,0,1,.51,2.21,4.85,4.85,0,0,1-2.33,2.07,9.85,9.85,0,0,1,2.93.08,23.49,23.49,0,0,1,3.81,1.17,33.49,33.49,0,0,0,4,1.32,7.23,7.23,0,0,0,2.47.14l.2.23a12.61,12.61,0,0,1-2.16.74,8.88,8.88,0,0,1-2.13.22,13.57,13.57,0,0,1-3.09-.45,18.33,18.33,0,0,1-3.26-1.19l-1.38-.66a9.26,9.26,0,0,0-1.55-.62,2.77,2.77,0,0,0-1.1-.07,5.8,5.8,0,0,0-1.28.43Zm1.68,6.95,3.18-1.43-.64-.05a3.5,3.5,0,0,1-.76-.12,1.1,1.1,0,0,1-.43-.33,1.85,1.85,0,0,0-.16-.18.76.76,0,0,1-.09-.09l-.12-.14-6.76-7.79-.12-.14a.76.76,0,0,1-.08-.11l-.15-.17a.85.85,0,0,1-.22-.4,1.08,1.08,0,0,1,.14-.49l.05-.08.29-.63-.37.19c-.63.33-1.22.62-1.74.85-.33.15-.79.34-1.37.58l.86.06a2.35,2.35,0,0,1,.74.11,1.22,1.22,0,0,1,.45.34l.25.27.12.14,6.76,7.79.12.14.23.28a.8.8,0,0,1,.23.42,1.4,1.4,0,0,1-.19.55Zm-2-7.28,2-.88a5.9,5.9,0,0,0,2.17-1.38,1.61,1.61,0,0,0,.34-1.27,2.72,2.72,0,0,0-.71-1.43,4,4,0,0,0-1.58-1.11,4.85,4.85,0,0,0-2-.36,5.52,5.52,0,0,0-2.09.5c-1,.45-1.46,1-1.4,1.62a3,3,0,0,0,.82,1.42Zm4.27-1.88a4.73,4.73,0,0,0,1-1,2.75,2.75,0,0,0,.54-1,1.8,1.8,0,0,0,0-.95,2.2,2.2,0,0,0-.48-.9,3.88,3.88,0,0,0-2.22-1.2,6.4,6.4,0,0,0-3,.14,6.68,6.68,0,0,1,1.58.15,5,5,0,0,1,1.35.52,4.34,4.34,0,0,1,1.07.88,2.9,2.9,0,0,1,.82,1.7A2.29,2.29,0,0,1,263.73,158.54ZM276,161.72a11,11,0,0,1-1.32,0,10.66,10.66,0,0,1-1.32-.18c-.65-.14-1.18-.28-1.59-.41s-1.13-.39-2.16-.79-1.82-.68-2.51-.88a10.1,10.1,0,0,0-1.89-.37,8.34,8.34,0,0,0-1.73,0,9,9,0,0,1,1.3.35c.21.08.61.25,1.22.53l.53.24c.17.07.35.16.52.25a18,18,0,0,0,4.8,1.51A10.33,10.33,0,0,0,276,161.72Z" transform="translate(-81.1 -62.6)"/><path class="cls-15" d="M241.23,233.87l-.3-.34c1.16-.71,1.8-1.42,1.9-2.13.1-.54-.4-1.3-1.47-2.28l-8.53-7.79a9.61,9.61,0,0,0-1.62-1.25,4,4,0,0,0-1.51-.45,8.29,8.29,0,0,0-3.48.46l-.36-.32.73-.3,2.18-.89c.71-.28,1.46-.6,2.24-1q2.12-1,4.46-2.19c1.45-.76,2.55-1.3,3.28-1.63a25.81,25.81,0,0,1,5.8-1.84,22.86,22.86,0,0,1,5.67-.37,18,18,0,0,1,5.14,1.06,12.51,12.51,0,0,1,4.09,2.46,7.24,7.24,0,0,1,2.22,3.35,5.11,5.11,0,0,1-.27,3.52,9.5,9.5,0,0,1-2.69,3.37,21.22,21.22,0,0,1-5,3c-.74.34-2,.83-3.71,1.49-1.22.45-2.38.93-3.48,1.42-.77.35-1.61.74-2.52,1.19l-2.34,1.21Zm2-1.68c1-.54,1.89-1,2.74-1.37s1.68-.72,2.52-1l-1,0a4.53,4.53,0,0,1-1.18-.05,1.56,1.56,0,0,1-.74-.39l-.39-.33-.19-.18-10.56-9.65-.19-.17-.36-.35a.88.88,0,0,1-.34-.54,2,2,0,0,1,.34-.77l.52-.83c-1,.53-1.89,1-2.66,1.32s-1.65.7-2.79,1.14l-.33.14,1.39,0a5.8,5.8,0,0,1,1.21.05,1.6,1.6,0,0,1,.71.4l.21.18.18.15.19.17,10.56,9.65.19.18.15.14a2.08,2.08,0,0,0,.21.2c.23.22.35.4.35.55a1.88,1.88,0,0,1-.35.76Zm-6.85-13.38,8.7,8a8.8,8.8,0,0,0,2.52,1.75,5,5,0,0,0,2.29.25,8.23,8.23,0,0,0,2.62-.72,10.23,10.23,0,0,0,3.29-2.21,5.64,5.64,0,0,0,1.53-2.78A4.88,4.88,0,0,0,257,220a8.82,8.82,0,0,0-2.25-3,13.5,13.5,0,0,0-4.92-2.84,16.55,16.55,0,0,0-6-.82,15.43,15.43,0,0,0-5.79,1.32,4.64,4.64,0,0,0-2.52,1.95C235.24,217.32,235.53,218,236.38,218.81Zm19.07,8a13.12,13.12,0,0,0,2.73-2.38,7.27,7.27,0,0,0,1.37-2.59q.88-3.26-2-5.89a12.22,12.22,0,0,0-4.25-2.46,18,18,0,0,0-5.52-.94,22.76,22.76,0,0,0-6,.69,24.19,24.19,0,0,1,2.49-.22,16.22,16.22,0,0,1,2.33,0,19.68,19.68,0,0,1,2.05.31,14.21,14.21,0,0,1,6.77,3.36,9.61,9.61,0,0,1,2.19,2.79,5.33,5.33,0,0,1,.64,2.85,4.52,4.52,0,0,1-.74,2.22A10.68,10.68,0,0,1,255.45,226.78Z" transform="translate(-81.1 -62.6)"/><path class="cls-15" d="M276.83,210.18l-9.3,4.18.43,1.77a3.85,3.85,0,0,0,1,1.93,3.19,3.19,0,0,0,1.43.73,6,6,0,0,0,2,.07,15.2,15.2,0,0,0,2.66-.59l.35.32L266,222.8l-.34-.31a4.47,4.47,0,0,0,1.65-2.46,8.58,8.58,0,0,0-.23-3.73l-3.31-13.9.47-.21,20.9,7.25.12,0,.18.06.23.07,1.82.58a9.1,9.1,0,0,0,2.72.47,9.38,9.38,0,0,0,2.67-.39l.35.32-11.53,5.17-.35-.32a10.74,10.74,0,0,0,1.88-1.13q1-.87.24-1.56a6.52,6.52,0,0,0-1.8-.85Zm-5.51,9.46a8.67,8.67,0,0,1-1.7-.37,3.09,3.09,0,0,1-1.05-.61l-.29-.29a4.33,4.33,0,0,1,0,1.49,4.68,4.68,0,0,1-.62,1.43ZM276,209.9l-10.48-3.65,1.85,7.53Zm-10.59-4.26,16.75,5.82.43.15a5.47,5.47,0,0,1,1.66.75,1.23,1.23,0,0,1,.19,1.38l4.77-2.14a13.7,13.7,0,0,1-2.5-.36c-.81-.2-1.84-.51-3.1-.94L265,203.82Z" transform="translate(-81.1 -62.6)"/><path class="cls-15" d="M295.48,209.55l-.3-.34c1.17-.71,1.8-1.42,1.9-2.13.1-.54-.39-1.29-1.47-2.28L287.09,197a9.75,9.75,0,0,0-1.63-1.25,3.88,3.88,0,0,0-1.51-.45,8.45,8.45,0,0,0-3.48.46l-.35-.32.73-.3,2.18-.88c.71-.29,1.45-.61,2.24-1,1.41-.64,2.89-1.36,4.45-2.19s2.55-1.3,3.28-1.63a25.81,25.81,0,0,1,5.8-1.84,23.4,23.4,0,0,1,5.68-.37,17.92,17.92,0,0,1,5.13,1.06,12.68,12.68,0,0,1,4.09,2.46,7.27,7.27,0,0,1,2.23,3.35,5.11,5.11,0,0,1-.27,3.52A9.42,9.42,0,0,1,313,201a21.14,21.14,0,0,1-5,3c-.75.34-2,.83-3.72,1.49-1.22.45-2.38.93-3.48,1.42-.77.35-1.61.75-2.52,1.19l-2.34,1.21Zm2-1.68c1-.53,1.89-1,2.73-1.37s1.68-.72,2.52-1l-1,0a5,5,0,0,1-1.18-.06,1.61,1.61,0,0,1-.74-.39l-.39-.33-.19-.18-10.56-9.64-.19-.18-.36-.35a.83.83,0,0,1-.33-.54,1.79,1.79,0,0,1,.33-.76l.52-.84c-1,.53-1.89,1-2.66,1.32s-1.65.7-2.78,1.14l-.34.14,1.4,0a5.65,5.65,0,0,1,1.2.05,1.55,1.55,0,0,1,.71.4l.22.18.17.15.2.18,10.55,9.64.2.18.15.15.2.2c.24.21.35.39.35.54a1.7,1.7,0,0,1-.35.76Zm-6.85-13.38,8.69,8a8.82,8.82,0,0,0,2.53,1.74,5.12,5.12,0,0,0,2.29.26,8.55,8.55,0,0,0,2.61-.73,10.28,10.28,0,0,0,3.3-2.21,5.59,5.59,0,0,0,1.52-2.77,5,5,0,0,0-.36-3.06,9.09,9.09,0,0,0-2.25-3,13.5,13.5,0,0,0-4.92-2.84,16.6,16.6,0,0,0-6-.82,15.43,15.43,0,0,0-5.78,1.33,4.62,4.62,0,0,0-2.53,1.94C289.5,193,289.79,193.72,290.64,194.49Zm19.06,8a12.87,12.87,0,0,0,2.73-2.38,7.29,7.29,0,0,0,1.38-2.59c.58-2.17-.08-4.13-2-5.89a12,12,0,0,0-4.26-2.45,17.63,17.63,0,0,0-5.52-1,22.86,22.86,0,0,0-6,.69,24.14,24.14,0,0,1,2.5-.22,16.08,16.08,0,0,1,2.32.05,18.9,18.9,0,0,1,2,.31,14.29,14.29,0,0,1,6.78,3.36,10,10,0,0,1,2.19,2.79,5.42,5.42,0,0,1,.64,2.85,4.62,4.62,0,0,1-.74,2.22A10.76,10.76,0,0,1,309.7,202.46Z" transform="translate(-81.1 -62.6)"/><path class="cls-15" d="M325.11,175.68l4.8,3-.61.27a19.46,19.46,0,0,0-2.56-1,10.7,10.7,0,0,0-2-.43,12,12,0,0,0-3.22.08,11.54,11.54,0,0,0-3.06.88,5,5,0,0,0-2.58,2.07,1.65,1.65,0,0,0,.47,2.15,5,5,0,0,0,3.57,1,23.77,23.77,0,0,0,2.5-.19c.84-.11,2.13-.3,3.87-.59,1.17-.21,2.18-.37,3-.49s1.53-.21,2.08-.25,1.11-.06,1.71-.06a8.43,8.43,0,0,1,5.82,1.9,3.37,3.37,0,0,1,1.25,2.74,4.81,4.81,0,0,1-1.55,3,13.23,13.23,0,0,1-4,2.63,32.59,32.59,0,0,1-4.38,1.52c-1,.28-2.47.59-4.28.93l-.62.13-4.82-3.67.54-.24a18.91,18.91,0,0,0,5.65,1.66,13.19,13.19,0,0,0,7.32-.87,7.88,7.88,0,0,0,2.53-1.67,2.91,2.91,0,0,0,.92-1.87,2.22,2.22,0,0,0-.84-1.76,4.81,4.81,0,0,0-2-1,10.58,10.58,0,0,0-3-.26,37.94,37.94,0,0,0-4.61.51c-2.72.43-4.38.67-5,.73a18.38,18.38,0,0,1-3.19.07,8.91,8.91,0,0,1-2.46-.5,5.33,5.33,0,0,1-1.77-1.05,3,3,0,0,1-1.1-2.3,3.82,3.82,0,0,1,1.15-2.49,9.25,9.25,0,0,1,3.13-2.13,18.92,18.92,0,0,1,3.07-1l1.27-.32a17.48,17.48,0,0,0,2.79-1Zm.25,18.52a33.33,33.33,0,0,0,3.86-.61c-1.26-.05-2.25-.11-3-.2a23.66,23.66,0,0,1-2.66-.49Zm12.49-5q1.63-2.56-.25-4.29a5.69,5.69,0,0,0-2-1.1,8.71,8.71,0,0,0-2.62-.46,34.09,34.09,0,0,0-6.35.62c-2.37.39-3.92.62-4.65.72a19.8,19.8,0,0,1-2.41.13,5.92,5.92,0,0,1-4.08-1.28,2.64,2.64,0,0,1-.6-.74,2.05,2.05,0,0,1-.21-.78,5.61,5.61,0,0,1,.13-1.19q-1.42,2.22.32,3.81a6.59,6.59,0,0,0,4.73,1.48,29,29,0,0,0,3.46-.29l3.55-.55a31.48,31.48,0,0,1,5.87-.55,7.07,7.07,0,0,1,4.49,1.51,2.54,2.54,0,0,1,.85,1.37A2.59,2.59,0,0,1,337.85,189.19Z" transform="translate(-81.1 -62.6)"/></svg>